<?xml version="1.0" encoding="iso-8859-1"?>
<!-- Uploaded to: SVG Repo, www.svgrepo.com, Generator: SVG Repo Mixer Tools -->
<svg height="800px" width="800px" version="1.1" id="Layer_1" xmlns="http://www.w3.org/2000/svg" xmlns:xlink="http://www.w3.org/1999/xlink" 
	 viewBox="0 0 511.999 511.999" xml:space="preserve">
<g>
	<path style="fill:#DD2645;" d="M273.873,367.536c67.624-18.665,117.284-80.624,117.284-154.185
		c0-88.33-71.604-159.934-159.932-159.934S71.292,125.021,71.292,213.351c0,73.561,49.66,135.52,117.283,154.185
		c13.577,3.747,27.882,5.749,42.65,5.749C245.996,373.285,260.297,371.281,273.873,367.536L273.873,367.536z M231.225,192.027
		c11.778,0,21.326,9.546,21.326,21.324c0,11.778-9.548,21.326-21.326,21.326c-11.777,0-21.326-9.547-21.326-21.326
		C209.899,201.573,219.449,192.027,231.225,192.027z"/>
	<g>
		<circle style="fill:#565164;" cx="231.222" cy="213.355" r="21.325"/>
		<circle style="fill:#565164;" cx="455.132" cy="213.355" r="21.326"/>
	</g>
	<path style="fill:#DD2645;" d="M349.952,377.496c-22.357,16.199-48.148,27.949-76.079,33.937
		c-13.751,2.947-28.016,4.502-42.648,4.502c-14.629,0-28.898-1.554-42.65-4.502c-27.927-5.987-53.719-17.735-76.074-33.934
		c-24.031,9.226-41.207,32.579-41.207,59.757v63.974h319.862v-63.974C391.156,410.077,373.983,386.721,349.952,377.496z"/>
	<path style="fill:#565164;" d="M273.873,411.432v-43.897c-13.576,3.747-27.877,5.749-42.648,5.749
		c-14.768,0-29.072-2.002-42.65-5.749v43.897c13.751,2.947,28.021,4.502,42.65,4.502
		C245.857,415.933,260.123,414.379,273.873,411.432z"/>
</g>
<g>
	<path style="fill:#000003;" d="M231.225,21.54c33.624,0,66.786,8.886,95.905,25.697c1.695,0.979,3.547,1.445,5.374,1.445
		c3.721,0,7.341-1.932,9.338-5.387c2.975-5.15,1.209-11.737-3.942-14.712C305.512,9.885,268.625,0,231.225,0
		c-5.948,0-10.77,4.822-10.77,10.77S225.276,21.54,231.225,21.54z"/>
	<path style="fill:#000003;" d="M65.111,309.255c-8.378-14.516-14.826-30.08-19.161-46.261c-1.538-5.745-7.446-9.158-13.189-7.616
		c-5.747,1.54-9.156,7.445-7.617,13.19c4.822,17.999,11.992,35.311,21.313,51.455c1.995,3.455,5.614,5.387,9.338,5.387
		c1.826,0,3.678-0.466,5.374-1.444C66.321,320.994,68.086,314.408,65.111,309.255z"/>
	<path style="fill:#000003;" d="M140.677,122.802c-15.887,15.887-27.353,35.758-33.158,57.462
		c-1.537,5.746,1.875,11.65,7.622,13.187c0.932,0.249,1.868,0.368,2.789,0.368c4.757,0,9.11-3.176,10.397-7.99
		c4.827-18.054,14.365-34.581,27.58-47.797c4.206-4.206,4.206-11.025-0.001-15.232C151.703,118.594,144.883,118.595,140.677,122.802
		z"/>
	<path style="fill:#000003;" d="M354.931,246.437c1.536-5.747-1.876-11.65-7.623-13.187c-5.745-1.539-11.649,1.875-13.187,7.622
		c-12.438,46.511-54.751,78.994-102.896,78.994c-5.948,0-10.77,4.823-10.77,10.77c0,5.948,4.822,10.77,10.77,10.77
		C289.107,341.406,339.977,302.353,354.931,246.437z"/>
	<path style="fill:#000003;" d="M263.32,213.351c0-17.697-14.396-32.094-32.093-32.094c-17.697,0-32.096,14.396-32.096,32.094
		c0,17.696,14.399,32.094,32.096,32.094C248.924,245.445,263.32,231.046,263.32,213.351z M220.671,213.351
		c0-5.819,4.735-10.554,10.556-10.554s10.554,4.733,10.554,10.554c0,5.819-4.733,10.554-10.554,10.554
		S220.671,219.17,220.671,213.351z"/>
	<path style="fill:#000003;" d="M114.12,202.195c-5.975-0.085-10.847,4.645-10.946,10.591l-0.003,0.563
		c0,5.947,4.823,10.77,10.77,10.77s10.77-4.823,10.77-10.77l0.001-0.21C124.81,207.193,120.068,202.292,114.12,202.195z"/>
	<path style="fill:#000003;" d="M348.509,224.509c5.948,0,10.77-4.822,10.77-10.77v-0.386c0-5.948-4.822-10.77-10.77-10.77
		s-10.77,4.822-10.77,10.77v0.386C337.738,219.687,342.56,224.509,348.509,224.509z"/>
	<path style="fill:#000003;" d="M487.224,213.351c0-17.697-14.396-32.094-32.094-32.094s-32.094,14.396-32.094,32.094
		c0,13.918,8.908,25.79,21.322,30.227v129.704c0,25.979-18.722,47.653-43.376,52.277c-4.195-25.954-22.096-48.49-47.17-58.118
		c-3.401-1.305-7.23-0.803-10.181,1.332c-18.073,13.096-37.971,22.787-58.988,28.865v-22.154
		c68.043-22.474,117.286-86.657,117.286-162.134c0-94.126-76.577-170.704-170.704-170.704S60.523,119.225,60.523,213.351
		c0,75.475,49.241,139.657,117.281,162.132v22.156c-21.015-6.078-40.911-15.768-58.986-28.863c-2.95-2.137-6.78-2.639-10.18-1.332
		c-28.78,11.049-48.116,39.104-48.116,69.811v63.974c0,5.947,4.823,10.77,10.77,10.77h319.862c5.948,0,10.77-4.823,10.77-10.77
		v-53.99c36.128-5.238,63.972-36.402,63.972-73.956V243.579C478.314,239.144,487.224,227.27,487.224,213.351z M82.064,213.351
		c0-82.249,66.915-149.163,149.162-149.163c82.25,0,149.164,66.915,149.164,149.163c0,82.248-66.913,149.163-149.163,149.163
		C148.979,362.514,82.064,295.599,82.064,213.351z M199.346,381.055c10.333,1.96,20.987,2.999,31.882,2.999
		c10.893,0,21.547-1.039,31.876-2.997v21.471c-10.447,1.742-21.098,2.635-31.878,2.635c-10.781,0-21.43-0.894-31.879-2.635V381.055z
		 M380.386,490.46H82.064v-53.204c0-20,11.543-38.426,29.228-47.443c35.444,24.157,76.775,36.892,119.932,36.892
		c43.162,0,84.492-12.735,119.937-36.894c17.68,9.018,29.225,27.444,29.225,47.445L380.386,490.46L380.386,490.46z M455.13,202.797
		c5.82,0,10.554,4.733,10.554,10.554c0,5.819-4.733,10.554-10.554,10.554c-5.818,0-10.554-4.735-10.554-10.554
		C444.577,207.531,449.312,202.797,455.13,202.797z"/>
</g>
</svg>