<?xml version="1.0" encoding="iso-8859-1"?>
<!-- Uploaded to: SVG Repo, www.svgrepo.com, Generator: SVG Repo Mixer Tools -->
<svg height="800px" width="800px" version="1.1" id="Layer_1" xmlns="http://www.w3.org/2000/svg" xmlns:xlink="http://www.w3.org/1999/xlink" 
	 viewBox="0 0 512 512" xml:space="preserve">
<path style="fill:#F7EDBC;" d="M508.646,214.579C488.848,92.893,383.28,0,256,0C114.615,0,0,114.615,0,256
	c0,122.861,86.556,225.489,202.011,250.278L508.646,214.579z"/>
<path style="fill:#FFD652;" d="M512,256c0-14.104-1.159-27.936-3.352-41.421L377.988,83.921L168.775,473.042l33.235,33.236
	C219.419,510.014,237.476,512,256,512C397.384,512,512,397.384,512,256z"/>
<polygon style="fill:#F15D4A;" points="343.219,473.042 255.998,417.39 222.606,306.086 343.219,306.086 "/>
<polygon style="fill:#FF9075;" points="168.775,473.042 255.998,417.39 255.998,306.086 168.775,306.086 "/>
<path style="fill:#C42725;" d="M255.998,33.39l-97.513,172.522l97.513,172.522c95.281,0,172.522-77.241,172.522-172.522
	S351.279,33.39,255.998,33.39z"/>
<path style="fill:#E24642;" d="M83.476,205.912c0,95.281,77.241,172.522,172.522,172.522V33.39
	C160.717,33.39,83.476,110.631,83.476,205.912z"/>
<path style="fill:#F15D4A;" d="M255.998,72.347l-75.493,133.565l75.493,133.565c73.766,0,133.565-59.799,133.565-133.565
	S329.764,72.347,255.998,72.347z"/>
<path style="fill:#FF9075;" d="M122.433,205.912c0,73.766,59.799,133.565,133.565,133.565V72.347
	C182.232,72.347,122.433,132.146,122.433,205.912z"/>
<path style="fill:#F7EDBC;" d="M255.998,94.608l-62.911,111.304l62.911,111.304c61.471,0,111.304-49.833,111.304-111.304
	S317.469,94.608,255.998,94.608z"/>
<path style="fill:#FFFFFF;" d="M144.693,205.912c0,61.471,49.833,111.304,111.304,111.304V94.608
	C194.525,94.608,144.693,144.441,144.693,205.912z"/>
<path style="fill:#E24642;" d="M322.779,228.146V159.19l-28.806,8.311l-37.977-50.631l-44.522,111.304l44.522,66.783
	C292.822,294.955,322.78,264.997,322.779,228.146z"/>
<path style="fill:#F15D4A;" d="M218.021,167.5l-28.806-8.311v68.984c0,36.824,29.959,66.783,66.783,66.783V116.868L218.021,167.5z"
	/>
<path style="fill:#FBE287;" d="M289.464,206.008l-33.466-44.617l-33.449,44.596c-5.423,7.245-8.289,15.879-8.289,24.97
	c0,23.014,18.724,41.738,41.738,41.738s41.738-18.724,41.738-41.738C297.736,221.865,294.873,213.236,289.464,206.008z"/>
<path style="fill:#FF7452;" d="M289.464,206.008l-33.466-44.617l-15.177,69.566l15.177,41.738c23.014,0,41.738-18.724,41.738-41.738
	C297.736,221.865,294.874,213.236,289.464,206.008z"/>
<path style="fill:#FF9075;" d="M222.547,205.986c-5.423,7.244-8.289,15.879-8.289,24.97c0,23.014,18.724,41.738,41.738,41.738
	V161.39L222.547,205.986z"/>
</svg>